<svg xmlns="http://www.w3.org/2000/svg" width="97" height="23">
    <path fill="#FFF" fill-rule="evenodd" d="M92.51 17.293c-1.835 0-3.692-.887-3.692-3.905V7.954h-1.223c-.328 0-.503-.178-.503-.511V6.29c0-.311.175-.51.503-.51h1.354l.393-2.419c.066-.443.35-.665.765-.665h.765c.459 0 .721.266.721.732V5.78h2.753c.327 0 .502.199.502.51v1.153c0 .333-.175.511-.502.511h-2.753v5.545c0 1.021.502 1.42 1.092 1.42.612 0 1.115-.421 1.115-1.109 0-.111 0-.244-.022-.399-.044-.355.065-.555.415-.555h1.158c.284 0 .502.111.568.4.087.377.109.754.109.842 0 2.086-1.442 3.195-3.518 3.195zm-7.887-.244h-.962c-.59 0-.917-.333-.917-.932v-5.368c0-1.93-.831-2.818-1.988-2.818-1.137 0-2.863.865-2.863 3.616v4.57c0 .599-.349.932-.939.932h-.961c-.59 0-.918-.333-.918-.932V6.733c0-.599.328-.953.918-.953h.961c.59 0 .939.354.939.953v1.043c.503-1.42 1.814-2.241 3.518-2.241 2.709 0 4.151 1.997 4.151 5.08v5.502c0 .599-.349.932-.939.932zm-18.164.244c-3.387 0-5.987-2.618-5.987-5.879 0-3.239 2.6-5.879 5.987-5.879 3.386 0 6.008 2.663 6.008 5.879 0 3.261-2.622 5.879-6.008 5.879zm0-9.362c-1.835 0-3.277 1.553-3.277 3.505 0 1.93 1.442 3.461 3.277 3.461 1.835 0 3.277-1.531 3.277-3.461 0-1.952-1.442-3.505-3.277-3.505zm-7.225.399a2.652 2.652 0 0 0-.568-.066c-1.049 0-2.622.643-2.622 4.326v3.527c0 .599-.349.932-.939.932h-.962c-.59 0-.917-.333-.917-.932V6.733c0-.599.327-.953.917-.953h.918c.59 0 .918.354.918.953v1.553c.371-1.93 1.791-2.751 2.927-2.751.088 0 .328.023.437.045.481.044.568.444.568.887v1.109c0 .577-.262.821-.677.754zm-7.079-3.926h-1.311c-.262 0-.459-.155-.459-.399V3.85c0-.489-.481-.821-1.092-.821-.852 0-1.289.643-1.289 1.641v1.198h2.185c.327 0 .502.178.502.511v1.064c0 .333-.175.511-.502.511h-2.142v8.163c0 .599-.327.932-.917.932h-.983c-.59 0-.94-.333-.94-.932V7.954h-1.114c-.328 0-.503-.178-.503-.511V6.379c0-.333.175-.511.503-.511h1.114v-.776c0-3.527 2.119-4.304 3.911-4.304 2.054 0 3.539 1.043 3.539 2.928 0 .111-.021.244-.043.355-.044.222-.219.333-.459.333zM35.309 22.151h-1.267c-.328 0-.502-.177-.502-.51V.655c0-.333.174-.51.502-.51h1.267c.306 0 .503.177.503.51v20.986c0 .333-.197.51-.503.51zM24.741 11.836h-8.149c-.044 1.708 1.442 3.105 3.736 3.105.918 0 1.835-.244 2.731-.82.481-.289.918-.244 1.289.177l.197.244c.393.444.371.998-.175 1.42-1.267.998-2.775 1.331-4.173 1.331-3.933 0-6.336-2.618-6.336-5.835 0-3.216 2.425-5.923 6.03-5.923 2.971 0 5.549 1.82 5.768 5.413.044.577-.328.888-.918.888zM19.935 7.82c-1.224 0-2.688.51-3.212 2.219h6.227c-.437-1.775-1.836-2.219-3.015-2.219zM6.614 17.293c-1.464 0-2.819-.555-3.758-1.93v.754c0 .599-.328.932-.918.932H.977c-.59 0-.939-.333-.939-.932V1.942c0-.599.349-.932.939-.932h.961c.59 0 .918.333.918.932v5.523c.939-1.375 2.294-1.93 3.758-1.93 3.212 0 5.418 2.596 5.418 5.879 0 3.283-2.206 5.879-5.418 5.879zm-.546-9.384c-1.923 0-3.234 1.486-3.256 3.505.022 2.019 1.333 3.505 3.256 3.505 2.01 0 3.146-1.575 3.146-3.505 0-1.908-1.136-3.505-3.146-3.505z"/>
</svg>
