<svg xmlns="http://www.w3.org/2000/svg" width="266" height="28">
    <path fill="#FFF" fill-rule="evenodd" d="M264.252 3.798h-7.415v22.384c0 .892-.495 1.397-1.369 1.397h-1.255c-.875 0-1.37-.505-1.37-1.397V3.798h-7.415c-.837 0-1.369-.505-1.369-1.397v-.582c0-.892.532-1.397 1.369-1.397h18.824c.875 0 1.369.505 1.369 1.397v.582c0 .892-.494 1.397-1.369 1.397zm-41.031 23.781h-.532c-.723 0-1.255-.233-1.711-.854L207.325 7.871v18.311c0 .892-.494 1.397-1.369 1.397h-1.293c-.875 0-1.369-.505-1.369-1.397V1.819c0-.892.494-1.397 1.369-1.397h.571c.722 0 1.255.233 1.711.854l13.614 18.776V1.819c0-.892.495-1.397 1.369-1.397h1.293c.875 0 1.407.505 1.407 1.397v24.363c0 .892-.532 1.397-1.407 1.397zm-54.417.426c-7.682 0-13.842-6.284-13.842-14.004 0-7.721 6.16-14.005 13.842-14.005s13.843 6.284 13.843 14.005c0 7.72-6.161 14.004-13.843 14.004zm0-24.324c-5.362 0-9.735 4.462-9.735 10.32 0 5.858 4.373 10.319 9.735 10.319 5.362 0 9.736-4.461 9.736-10.319 0-5.858-4.374-10.32-9.736-10.32zm-35.288 24.324c-6.275 0-8.177-7.37-8.443-10.629h-5.248v8.806c0 .892-.494 1.397-1.369 1.397h-1.293c-.874 0-1.369-.505-1.369-1.397V1.819c0-.892.495-1.397 1.369-1.397h9.85c5.134 0 8.1 3.957 8.1 8.574 0 4.035-2.282 7.41-6.237 8.186.266 2.948 2.054 7.371 4.944 7.371.761 0 1.407-.155 1.939-.466.837-.388 1.408-.31 1.826.505l.19.349c.342.776.304 1.474-.418 1.94-1.141.775-2.472 1.124-3.841 1.124zM130.93 8.996c0-3.065-1.826-5.198-4.716-5.198h-6.389v10.319h6.389c2.928 0 4.716-2.134 4.716-5.121zM94.234 3.798H82.597v8.806h9.964c.874 0 1.407.504 1.407 1.397v.504c0 .892-.533 1.436-1.407 1.436h-9.964v10.241c0 .892-.494 1.397-1.369 1.397h-1.293c-.875 0-1.369-.505-1.369-1.397V1.819c0-.892.494-1.397 1.369-1.397h14.299c.874 0 1.369.505 1.369 1.397v.582c0 .892-.495 1.397-1.369 1.397zM56.587 27.579H42.288c-.874 0-1.369-.505-1.369-1.397V1.819c0-.892.495-1.397 1.369-1.397h14.299c.837 0 1.369.505 1.369 1.397v.582c0 .892-.532 1.397-1.369 1.397H44.95v8.806h9.964c.875 0 1.369.504 1.369 1.397v.504c0 .892-.494 1.436-1.369 1.436H44.95v8.263h11.637c.837 0 1.369.504 1.369 1.396v.582c0 .892-.532 1.397-1.369 1.397zm-45.176 0H1.98c-.875 0-1.369-.505-1.369-1.397V1.819C.611.927 1.105.422 1.98.422h8.214c5.096 0 8.861 2.638 8.861 7.022 0 2.794-1.559 5.315-5.02 6.207 4.183.466 6.275 3.337 6.275 6.673 0 4.384-3.575 7.255-8.899 7.255zM14.91 7.755c0-2.6-2.206-3.957-4.754-3.957H4.642v8.573h4.031c4.525 0 6.237-2.289 6.237-4.616zm-5.401 7.72H4.642v8.729h6.731c2.814 0 4.83-1.591 4.83-4.035 0-2.405-1.978-4.694-6.694-4.694z"/>
</svg>
